HIERARCHY
ROOT Hips
{
	OFFSET -14.64140 90.27770 -84.91600
	CHANNELS 6 Xposition Yposition Zposition Zrotation Xrotation Yrotation
	JOINT Spine
	{
		OFFSET 0.00000 13.20850 -1.60436
		CHANNELS 3 Zrotation Xrotation Yrotation
		JOINT Spine1
		{
			OFFSET 0.00000 8.61716 0.00000
			CHANNELS 3 Zrotation Xrotation Yrotation
			JOINT Spine2
			{
				OFFSET 0.00000 8.61717 0.00000
				CHANNELS 3 Zrotation Xrotation Yrotation
				JOINT Spine3
				{
					OFFSET 0.00000 8.61717 0.00000
					CHANNELS 3 Zrotation Xrotation Yrotation
					JOINT Neck
					{
						OFFSET 0.00000 11.07920 1.10792
						CHANNELS 3 Zrotation Xrotation Yrotation
						JOINT Neck1
						{
							OFFSET 0.00000 7.08032 0.00000
							CHANNELS 3 Zrotation Xrotation Yrotation
							JOINT Head
							{
								OFFSET 0.00000 7.08031 0.00000
								CHANNELS 3 Zrotation Xrotation Yrotation
								End site
								{
									OFFSET 0.00000 0.00000 0.00000
								}
							}
						}
					}
					JOINT RightShoulder
					{
						OFFSET -0.01000 7.91373 5.19711
						CHANNELS 3 Zrotation Xrotation Yrotation
						JOINT RightArm
						{
							OFFSET -18.41580 0.00000 0.00000
							CHANNELS 3 Zrotation Xrotation Yrotation
							JOINT RightForeArm
							{
								OFFSET -29.11090 0.00000 0.00000
								CHANNELS 3 Zrotation Xrotation Yrotation
								JOINT RightHand
								{
									OFFSET -24.65040 0.00000 0.00000
									CHANNELS 3 Zrotation Xrotation Yrotation
									JOINT RightHandThumb1
									{
										OFFSET -5.35114 -0.85590 3.97906
										CHANNELS 3 Zrotation Xrotation Yrotation
										JOINT RightHandThumb2
										{
											OFFSET -4.52789 0.00000 0.00000
											CHANNELS 3 Zrotation Xrotation Yrotation
											JOINT RightHandThumb3
											{
												OFFSET -2.46976 0.00000 0.00000
												CHANNELS 3 Zrotation Xrotation Yrotation
												End site
												{
													OFFSET 0.00000 0.00000 0.00000
												}
											}
										}
									}
									JOINT RightHandIndex1
									{
										OFFSET -14.26970 0.00000 2.88139
										CHANNELS 3 Zrotation Xrotation Yrotation
										JOINT RightHandIndex2
										{
											OFFSET -5.48836 0.00000 0.00000
											CHANNELS 3 Zrotation Xrotation Yrotation
											JOINT RightHandIndex3
											{
												OFFSET -3.01859 0.00000 0.00000
												CHANNELS 3 Zrotation Xrotation Yrotation
												End site
												{
													OFFSET 0.00000 0.00000 0.00000
												}
											}
										}
									}
									JOINT RightHandMiddle1
									{
										OFFSET -14.26970 0.00000 -0.09147
										CHANNELS 3 Zrotation Xrotation Yrotation
										JOINT RightHandMiddle2
										{
											OFFSET -6.17441 0.00000 0.00000
											CHANNELS 3 Zrotation Xrotation Yrotation
											JOINT RightHandMiddle3
											{
												OFFSET -3.56743 0.00000 0.00000
												CHANNELS 3 Zrotation Xrotation Yrotation
												End site
												{
													OFFSET 0.00000 0.00000 0.00000
												}
											}
										}
									}
									JOINT RightHandRing1
									{
										OFFSET -12.69180 0.00000 -3.06433
										CHANNELS 3 Zrotation Xrotation Yrotation
										JOINT RightHandRing2
										{
											OFFSET -5.62556 0.00000 0.00000
											CHANNELS 3 Zrotation Xrotation Yrotation
											JOINT RightHandRing3
											{
												OFFSET -3.56744 0.00000 0.00000
												CHANNELS 3 Zrotation Xrotation Yrotation
												End site
												{
													OFFSET 0.00000 0.00000 0.00000
												}
											}
										}
									}
									JOINT RightHandPinky1
									{
										OFFSET -11.11390 0.00000 -6.03719
										CHANNELS 3 Zrotation Xrotation Yrotation
										JOINT RightHandPinky2
										{
											OFFSET -4.52789 0.00000 0.00000
											CHANNELS 3 Zrotation Xrotation Yrotation
											JOINT RightHandPinky3
											{
												OFFSET -2.46976 0.00000 0.00000
												CHANNELS 3 Zrotation Xrotation Yrotation
												End site
												{
													OFFSET 0.00000 0.00000 0.00000
												}
											}
										}
									}
								}
							}
						}
					}
					JOINT LeftShoulder
					{
						OFFSET 0.01000 7.91373 5.19711
						CHANNELS 3 Zrotation Xrotation Yrotation
						JOINT LeftArm
						{
							OFFSET 18.41580 0.00000 0.00000
							CHANNELS 3 Zrotation Xrotation Yrotation
							JOINT LeftForeArm
							{
								OFFSET 29.11090 0.00000 0.00000
								CHANNELS 3 Zrotation Xrotation Yrotation
								JOINT LeftHand
								{
									OFFSET 24.65040 0.00000 0.00000
									CHANNELS 3 Zrotation Xrotation Yrotation
									JOINT LeftHandThumb1
									{
										OFFSET 5.35114 -0.85590 3.97906
										CHANNELS 3 Zrotation Xrotation Yrotation
										JOINT LeftHandThumb2
										{
											OFFSET 4.52789 0.00000 0.00000
											CHANNELS 3 Zrotation Xrotation Yrotation
											JOINT LeftHandThumb3
											{
												OFFSET 2.46977 0.00000 0.00000
												CHANNELS 3 Zrotation Xrotation Yrotation
												End site
												{
													OFFSET 0.00000 0.00000 0.00000
												}
											}
										}
									}
									JOINT LeftHandIndex1
									{
										OFFSET 14.26970 0.00000 2.88139
										CHANNELS 3 Zrotation Xrotation Yrotation
										JOINT LeftHandIndex2
										{
											OFFSET 5.48836 0.00000 0.00000
											CHANNELS 3 Zrotation Xrotation Yrotation
											JOINT LeftHandIndex3
											{
												OFFSET 3.01859 0.00000 0.00000
												CHANNELS 3 Zrotation Xrotation Yrotation
												End site
												{
													OFFSET 0.00000 0.00000 0.00000
												}
											}
										}
									}
									JOINT LeftHandMiddle1
									{
										OFFSET 14.26970 0.00000 -0.09147
										CHANNELS 3 Zrotation Xrotation Yrotation
										JOINT LeftHandMiddle2
										{
											OFFSET 6.17440 0.00000 0.00000
											CHANNELS 3 Zrotation Xrotation Yrotation
											JOINT LeftHandMiddle3
											{
												OFFSET 3.56744 0.00000 0.00000
												CHANNELS 3 Zrotation Xrotation Yrotation
												End site
												{
													OFFSET 0.00000 0.00000 0.00000
												}
											}
										}
									}
									JOINT LeftHandRing1
									{
										OFFSET 12.69180 0.00000 -3.06433
										CHANNELS 3 Zrotation Xrotation Yrotation
										JOINT LeftHandRing2
										{
											OFFSET 5.62556 0.00000 0.00000
											CHANNELS 3 Zrotation Xrotation Yrotation
											JOINT LeftHandRing3
											{
												OFFSET 3.56744 0.00000 0.00000
												CHANNELS 3 Zrotation Xrotation Yrotation
												End site
												{
													OFFSET 0.00000 0.00000 0.00000
												}
											}
										}
									}
									JOINT LeftHandPinky1
									{
										OFFSET 11.11390 0.00000 -6.03719
										CHANNELS 3 Zrotation Xrotation Yrotation
										JOINT LeftHandPinky2
										{
											OFFSET 4.52789 0.00000 0.00000
											CHANNELS 3 Zrotation Xrotation Yrotation
											JOINT LeftHandPinky3
											{
												OFFSET 2.46976 0.00000 0.00000
												CHANNELS 3 Zrotation Xrotation Yrotation
												End site
												{
													OFFSET 0.00000 0.00000 0.00000
												}
											}
										}
									}
								}
							}
						}
					}
					JOINT pCube4
					{
						OFFSET 0.00000 10.91090 1.10792
						CHANNELS 3 Zrotation Xrotation Yrotation
						End site
						{
							OFFSET 0.00000 0.00000 0.00000
						}
					}
				}
			}
		}
	}
	JOINT RightUpLeg
	{
		OFFSET -9.98441 0.00000 0.00000
		CHANNELS 3 Zrotation Xrotation Yrotation
		JOINT RightLeg
		{
			OFFSET 0.00000 -42.11790 0.00000
			CHANNELS 3 Zrotation Xrotation Yrotation
			JOINT RightFoot
			{
				OFFSET 0.00000 -45.00020 -0.00001
				CHANNELS 3 Zrotation Xrotation Yrotation
				JOINT RightForeFoot
				{
					OFFSET 0.00000 -3.74820 0.00000
					CHANNELS 3 Zrotation Xrotation Yrotation
					JOINT RightToeBase
					{
						OFFSET 0.00000 0.06325 14.43120
						CHANNELS 3 Zrotation Xrotation Yrotation
						End site
						{
							OFFSET 0.00000 0.00000 0.00000
						}
					}
				}
			}
		}
	}
	JOINT LeftUpLeg
	{
		OFFSET 9.98441 0.00000 0.00000
		CHANNELS 3 Zrotation Xrotation Yrotation
		JOINT LeftLeg
		{
			OFFSET 0.00000 -42.11800 0.00000
			CHANNELS 3 Zrotation Xrotation Yrotation
			JOINT LeftFoot
			{
				OFFSET 0.00000 -45.00070 0.00000
				CHANNELS 3 Zrotation Xrotation Yrotation
				JOINT LeftForeFoot
				{
					OFFSET 0.00000 -3.74824 0.00000
					CHANNELS 3 Zrotation Xrotation Yrotation
					JOINT LeftToeBase
					{
						OFFSET 0.00000 0.06325 14.43110
						CHANNELS 3 Zrotation Xrotation Yrotation
						End site
						{
							OFFSET 0.00000 0.00000 0.00000
						}
					}
				}
			}
		}
	}
}
MOTION
Frames: 4
Frame Time: 0.050000
0.024469887451172123 -0.012698005755088863 0.014678103904994784 0.012529173696407226 0.029472955334334663 0.006448099816221706 -2.4237531340198415 -0.13339908102831832 -0.8499559040001344 -0.9474101353714822 3.704047279552277 0.33512817852447424 -1.3404187745398233 -2.2064308173778246 -1.3447907441797604 0.8539578583603935 0.16628875606929325 -0.8833078819665248 1.2521940657074289 14.609510837273545 -3.5848720772838094 0.4033107299317966 1.235861271629994 -9.33612853671991 1.577240630457113 -13.184331412575466 -0.7509976370690609 -7.457369234128643 2.333567512437202 -15.627879230320982 68.37903137504725 -2.0855424740158326 13.147189463977782 22.46900284772001 3.0894757519044775 98.3888481029775 11.044983330541639 -0.32574265428334304 -1.9330010686388763 4.543516921767685 -0.08094842553473322 -1.5649710456548434 0.02310372506957417 -0.014817360819505057 -56.281639297091886 -0.014798550543323272 0.010422783825553754 -56.20363567322852 -38.74081838490504 -0.0315580657006985 0.04055138620548202 -0.04229042814280164 -0.02531787400221821 -0.007424678320481949 0.002093628808367227 0.0028725193384640676 -0.026021516879771237 -36.669481242265306 0.01605647842177716 0.04052049470005046 0.010090197429532731 0.03485235304813956 -0.02082011474509296 0.029426333965089112 -0.039291140588411703 0.037486369885683955 -19.78042835633841 0.0242974125469375 0.02950287001587094 -0.006859305386901348 0.04335588808367665 -0.03159861870553072 -0.040738084212325686 -0.035289013010360686 -0.007531799609034927 24.102052664357736 -0.006845667454971212 0.007686199451133854 28.888932893807056 0.02411525184897545 0.013239806523764388 28.873305523444117 0.04512974887457393 0.04790892156439743 7.287694940821204 1.8083585762039638 13.162032358889919 -68.43765901122308 15.092315800396317 -12.559915951481274 -22.499037702929723 1.9194840305463152 -100.62523174705198 -1.9584894687985726 -1.7986115891146879 -1.7692786732022796 -0.5188867271478121 0.096835778472174 -8.080468281303405 0.03918527528894294 0.02477076027970513 44.58026106011034 -0.005148995141137118 0.04757043711482228 44.568489866847976 12.440087229113901 0.027150987833906712 0.005069160652813973 -0.005209483001536946 0.02080809412234161 0.00900206041716588 -0.030142522043042876 -0.03497921900651386 -0.00666277974653932 11.09917045408222 0.0005925227286285911 -0.0184649224338937 0.02731947410396392 -0.03014326124171955 -0.02936318286113597 -0.039828658511843945 0.03272731705672291 -0.04293851202836502 4.729286562123371 0.010045900458819453 -0.01912275961011616 -0.03575894894507852 -0.0166992459085531 0.03028244251282218 -0.0038619117212255415 0.034025456669697744 0.02657897286460957 -5.555383742588183 0.006717390525289872 -0.028653884589398673 -6.703960671837071 0.03158776729678535 -0.017082687227439566 -6.73143848374192 -0.0016264065486139793 0.009184026103824136 -0.005404591623943237 0.02683842643520666 0.0014076164095367018 8.03924845546703 3.4914279188993413 -19.23135539364999 -0.03557182904883614 10.44216689330436 -0.017527304044954246 -5.574073647978798 -15.61900863076668 3.2125182899054043 -0.021829921148923875 -0.029320516661356495 -0.036283911892388616 -0.003966123057227416 4.724395846863737 0.03773985290126131 12.470436691916177 -8.188749363055896 6.852323933165758 0.006308015318765009 46.403134732258174 -0.04150260451312219 -4.367875470376823 -14.786500814804686 -3.80662946739537 0.03242438605890822 -0.021182023634509498 0.04774807727457412 0.026012830037266756 -10.700873117774576 0.0006060988763983227 
-0.02735602114856602 0.017382543160759753 -0.004728782759313762 0.013862703191278164 -0.012691563851988788 0.016315494579129786 -2.504857369774202 -0.1453451887325674 -0.8967697364128389 -0.9717707713149873 3.678006476347147 0.39198119948100263 -1.4010670037760133 -2.169802511531426 -1.2650322911737846 0.7601045605122523 0.1243699204858257 -0.8967727890280336 1.1630076037246313 14.724243326857964 -3.431551780694587 0.40496943397538043 1.3925172384018798 -9.033236592782766 1.5360767443833738 -12.931435772057245 -0.7091231142827134 -7.553046883508496 2.3579787962037413 -15.430348704540672 67.87548835933876 -2.3679845057342535 15.215774400453833 21.93174237820689 2.943667093785739 98.12326889676729 11.595203006249285 -0.371476029004063 -2.1827810330879016 4.525833291429146 -0.13282511042038717 -1.5825609362741029 0.007137594292401188 0.0009868199325564532 -56.26663627468973 -0.01913199953271985 0.011556435957303459 -56.262027457144306 -38.75955712139131 -0.01505635160670521 -0.030718029084544234 -0.027143194649552876 0.02473204479784325 -0.030524414239533216 -0.01151943079292457 -0.00040042132785123095 -0.010670739938422043 -36.64828554552005 0.01575487217819539 0.042753522806650915 0.03721491878299071 0.006443407006503177 0.022922703832190576 0.026878279762723785 -0.03651224063205317 -0.001292233724551915 -19.756883849736408 -0.043290989883056 0.003402881897040273 0.03130462342282629 -0.02431639331147624 0.04125988943112427 -0.023137123230409107 -0.025974456957763434 0.007038141915656232 24.06761778286422 -0.020480586876282448 0.03476824408867457 28.890061747178045 -0.0061224592608534216 -0.04291760458777723 28.854485121804228 0.020208223485644976 -0.020077056779211833 7.323748513258323 1.7442098518040015 13.027446317408588 -68.02286541722613 15.679383127886155 -13.660045140358868 -21.357340822182373 1.334272563035184 -99.87728773358458 -2.581773584117478 -1.8886071739240016 -1.488866272978728 -0.4482772061877814 0.10182275364939428 -8.121720014531633 0.02168003528956987 0.03846922291082152 44.58103206777448 -0.032786007325146416 -0.021773885235397732 44.570787799272615 12.473963148242944 0.03161440191664085 0.024170393582284948 -0.04786827663695968 0.003349925879865696 0.013396109530582994 -0.0465320390290155 -0.025643435415731032 -0.02438836965884046 11.128383794771084 0.022608969389357518 -0.01436273474396212 0.02185080895844383 -0.03243485769691527 0.008483420597046754 -0.04983627710112894 0.005141118181119903 0.04796591404057646 4.781638133842452 0.006829301547176642 -0.0013076293261179881 0.03388214111812036 -0.0028700163182528533 -0.03905605614328001 -0.02884372519125339 0.0422497355746098 -0.013301149481832527 -5.555719252477275 0.03696948441000739 0.025068858379262562 -6.720582962878921 -0.03876641189056407 0.010859143809666348 -6.709186542948551 -0.03784154942037697 -0.032488103976074885 -0.018437237626185012 -0.014826899005787356 -0.0019559776352832013 8.048923089718704 3.4601233752424396 -19.238977286892265 -0.03173342593959551 10.384781490276156 -0.006750028232908625 -5.635713829072736 -15.652650369421638 3.2109387898864106 0.028433043449802114 0.04253526411588807 -0.002723899713989694 0.02211815542127033 4.685332847124586 -0.048898620633210675 12.493901625032377 -8.22266945676692 6.865120456159285 -0.0067680407080373504 46.372070267589486 0.024648041661103213 -4.291931473786138 -14.715504785156712 -3.8850226888540216 0.01916594874478113 -0.00014526605711142902 0.04505936921976713 0.006732639416230173 -10.77719034012249 0.026720521705345602 
0.045619229797696906 0.012246954552569076 0.00238117100252281 -0.03394030218729211 0.04157460270923047 0.01613359140520455 -2.6225919910247923 -0.16439406523186884 -0.8525806027924488 -0.9403140562432021 3.688944622874779 0.3304587126239338 -1.3978974277561822 -2.1947975562597883 -1.190741948567333 0.6768018502746778 0.16470394256938878 -0.8956235904065395 1.1943012429693778 14.824347807591 -3.183741117433443 0.4230615657975077 1.4319554564675177 -8.561422406464818 1.4947922319740685 -12.71731954877235 -0.6527387241935516 -7.621150268208857 2.3980199044083688 -15.224923516082654 67.97378795213939 -1.8374620248167468 17.055754075726565 21.443630395681417 2.9837302759767352 97.70992992596179 12.256262432624245 -0.4294926535330394 -2.507002357803244 4.509222040471851 -0.1282001584751924 -1.5520933804931283 0.0428270421118973 -0.04063094071254628 -56.215957988514994 0.03401028176904028 0.005118211335463446 -56.235416185571495 -38.79855456833596 -0.04866816576847177 -0.007387552610840284 0.02684356108586478 0.0015868050425124878 -0.04674259099345631 -0.0246766609831937 -0.017901953520033535 0.040120602642205905 -36.727481918644976 0.0026589626251667386 -0.006006102053254709 0.015784414486562124 -0.0021873151477591656 0.021554416147046243 3.7554737332866096e-07 -0.04383587753235429 -0.028900416861287897 -19.76689536616533 -0.014771694878755712 0.005964958237083826 -0.00825270874710757 -0.024025655513298376 -0.0483535515833003 0.001422823135206339 -0.0009267332266002469 0.007206379241159014 24.024508460742403 -0.015509113168320906 -0.04138414234719551 28.85007212590067 -0.046057932249738816 0.04326032751823063 28.818325426671095 0.009319551487365834 -0.020789595612725083 7.443281511635823 1.7921762214134065 12.87764667613688 -67.9050924902274 16.232544039555258 -14.814453420204192 -21.6353120672633 1.4699643267798868 -99.43277144792283 -3.532031620835082 -2.198059378936357 -1.1170386346963386 -0.5055063213552755 0.07682264929115716 -8.09857136730876 0.020945888174697645 0.03681223343477051 44.54400449084719 0.009039817264812238 -0.03996927284071086 44.54116329873329 12.501790566162136 0.039226432900457214 0.049627643489370384 -0.0210264411014531 0.026592178451539095 -0.007757930638949656 0.009162140762287 0.03455547616044427 -0.003780529307662042 11.099425798212547 -0.04531317206569288 0.042984650798144196 -0.04904731650262617 0.040420676350306384 -0.01595660398823914 -0.03763201204631018 -0.033596647753630714 -0.0019037617587145672 4.73519805370637 -0.01699424466540612 -0.009483371246620414 -0.01722055182943802 0.04763832814521089 -0.044159711001892 0.026816649355917366 -0.016078609911392427 -0.0012295259608792576 -5.648240954835802 0.04769327138077205 -0.01971342980070178 -6.671254253821896 -0.007131345559060612 -0.03640417660774204 -6.694316568725036 0.0272746354439367 0.04277681949319123 0.030552863344815787 0.02089597904869594 -0.03206324752608028 8.009070385400417 3.479053993955186 -19.198117522154313 0.013688850800105514 10.35781590670819 0.040986300182770614 -5.6160458251962195 -15.617904497880305 3.1535784894543903 0.0314829496530543 0.03934688803999244 0.03727267646957394 0.025755808319774295 4.668321192888849 0.02370030999440632 12.493134428536631 -8.266794849748745 6.851528376413041 0.017659949572589602 46.425726031325034 -0.018495863644388048 -4.3442789469592205 -14.74776875169239 -3.851747184821991 -0.027388501443096958 0.03363104267504397 0.034317135615169324 -0.0050626125324673985 -10.790055492804326 0.02897004207441395 
-0.03865919724382756 -0.03310813842000749 0.016035224886188693 -0.017852265351846513 -0.03807873769461079 0.017524208352150017 -2.723514445105932 -0.20335081568586238 -0.7843471934044965 -0.9129721607284564 3.633776962634522 0.34189182939190854 -1.4133313166269588 -2.216010065169484 -1.1905760312214906 0.5195397416991092 0.13775739507983845 -0.8480794173383621 1.1051973763584126 14.943797030019866 -2.9048850615334665 0.4692561862359713 1.5753042772979624 -7.862910092042205 1.4491154507776844 -12.477299603834767 -0.5900520837996227 -7.759392458420552 2.486360088854581 -15.052166278165986 68.46501186049446 -1.0534621010162288 18.600859456704757 21.684378607677953 3.247869609553465 97.14053369037627 12.975563896004003 -0.4481582213377758 -2.842074104264265 4.566990473441837 -0.13011925281686904 -1.599752644730781 0.03228710184193299 0.02772277318153234 -56.19886983240219 -0.03266286955820258 -0.004227633188156105 -56.21697669444338 -38.73415553710609 0.045992895687948926 0.0340120878755043 0.005982526370330409 0.04893372705508056 0.011953047927221874 -0.028289212322116796 -0.04272372036392374 0.04279592136140841 -36.679337965454145 0.027606290132575175 -0.007159244868171193 0.016090058022268067 -0.028423919049626045 -0.0010243445689969044 0.009548062667741584 -0.03843945923723434 0.045532016128945904 -19.760303928572196 0.02716174153242943 -0.014121413525992865 -0.04231428583586755 0.016339962674988683 -0.015618757990496862 0.029094931181619415 -0.021455185347908995 -0.040871571589586396 24.055744701651918 -0.0015351270413838086 -0.03867671998587901 28.87493277255411 0.04243385694489247 -0.00758475723038223 28.842280580440455 0.03435625253262559 0.032669451484239276 7.6692024795422045 1.8107640160258511 12.778734768520673 -68.04945399255871 16.21956073848648 -16.26032567719212 -23.069804636916075 2.2957152192601913 -99.26025788560804 -4.204396421531613 -2.2705517517930476 -0.8406444992533859 -0.45256465534640483 0.09319315666573728 -8.1582236066818 0.013209999050729034 0.020064691190161098 44.596993767604275 0.011142551974406374 -0.021461485022556896 44.573177952055644 12.422552799169791 0.01661536161675329 0.031335672021567 0.009964593150894097 -0.019105522154254657 -0.04708366976579932 0.013476572592099506 -0.020421812234753402 -0.04589648115986882 11.065526600288116 0.04806848901314829 0.0087746855021466 0.004606533684952919 -0.026820802212584656 -0.022851975132901617 -0.0158246925959871 0.029973473469364655 -0.008500288433544508 4.753475694736178 0.007174824168951192 -0.04450493839473633 0.038785320169780896 -0.015854328558855654 0.02737093952940224 -0.01958096004694403 -0.00624206582049323 0.010923803223373612 -5.590619181694979 -0.013895443661221035 0.030044524309354365 -6.737184866687812 -0.008249656200150484 0.02537874575121806 -6.71228768719011 0.048107473813369786 0.017299680110179277 -0.03940115566042868 0.02764730217729851 -0.009278826510564095 8.050255441060257 3.4737416820278986 -19.199520549087215 0.01682752477385083 10.391344735844452 0.05304433439843108 -5.607106839503916 -15.653554137438418 3.199661249582068 0.032992323462566024 -0.007782733509058205 -0.013479550893565121 -0.03865748394716017 4.680020594549726 0.009371770544083516 12.409937026184867 -8.24355114408399 6.900218838006705 -0.046358201369238156 46.38347591992793 -0.015154014584213223 -4.303932981019993 -14.723467221457115 -3.8245374774675898 -0.016715035143673024 0.021381809954954447 0.03819866176497814 -0.03278811131459977 -10.72313984734425 -0.012385453895299662 
